Coordinates
version=1
nRows=10
nColumns=22
inDegrees=yes

Units are S.I. units (second, meters, Newtons, ...)
If the header above contains a line with 'inDegrees', this indicates whether rotational values are in degrees (yes) or radians (no).

endheader
time	pelvis_tilt	pelvis_list	pelvis_rotation	pelvis_tx	pelvis_ty	pelvis_tz	hip_flexion_r	hip_adduction_r	hip_rotation_r	knee_angle_r	ankle_angle_r	subtalar_angle_r	hip_flexion_l	hip_adduction_l	hip_rotation_l	knee_angle_l	ankle_angle_l	subtalar_angle_l	lumbar_extension	lumbar_bending	lumbar_rotation
      3.14000000	      4.86759641	      6.93957300	    -47.27141778	      0.34539568	      0.87764668	     -0.45585125	     20.45004819	      9.54866039	     34.21533030	    -27.26434809	      2.15385665	    -10.40305100	     33.37501360	    -17.02959647	     -1.51378349	    -75.86349887	     13.72220839	      5.13904864	     -7.78952011	      0.92075270	     -9.35108986
      3.15000000	      5.41569446	      7.03305034	    -50.86169519	      0.34778413	      0.87968151	     -0.45197861	     19.50819695	      9.61348965	     35.44718589	    -26.69658600	      1.96416038	    -10.71090291	     34.01722335	    -17.53700187	     -0.64200104	    -76.14498837	     14.06007011	      4.56792787	     -7.94243451	      0.34529950	     -8.57864310
      3.16000000	      6.01715832	      7.12766828	    -54.56200022	      0.34972396	      0.88165412	     -0.44833643	     18.66468194	      9.60036359	     36.38100090	    -26.22991763	      1.76240304	    -11.05520194	     34.46668531	    -18.03343334	      0.04432291	    -76.43793014	     14.39240172	      3.87891864	     -8.05887051	     -0.30715690	     -7.70283934
      3.17000000	      6.66764115	      7.22851033	    -58.36278621	      0.35125724	      0.88352380	     -0.44497487	     17.95394725	      9.51390478	     36.92458072	    -25.87841812	      1.57128348	    -11.40469905	     34.74528627	    -18.51394168	      0.51541205	    -76.73600668	     14.70204929	      3.12101991	     -8.11816985	     -1.03415639	     -6.72198262
      3.18000000	      7.38044102	      7.32980464	    -62.23043614	      0.35246323	      0.88529546	     -0.44197799	     17.37915428	      9.34407887	     37.02886342	    -25.63916140	      1.37695032	    -11.80873857	     34.86578443	    -18.92596432	      0.80027475	    -77.02762282	     15.00310494	      2.21448001	     -8.12445513	     -1.83419355	     -5.65838332
      3.19000000	      8.14058309	      7.43515817	    -66.14629407	      0.35345710	      0.88691919	     -0.43936015	     16.96216557	      9.08867758	     36.57821244	    -25.48518734	      1.21418502	    -12.25222850	     34.86820157	    -19.27750732	      0.88156470	    -77.30493569	     15.27979677	      1.26923936	     -8.04493079	     -2.68197495	     -4.53998641
      3.20000000	      9.00076972	      7.52862168	    -70.08463577	      0.35434434	      0.88842990	     -0.43713519	     16.67727630	      8.70225547	     35.54016765	    -25.42021299	      1.13527969	    -12.66495464	     34.73316149	    -19.48076057	      0.78474745	    -77.54536894	     15.47442888	      0.50884556	     -7.90971688	     -3.61681175	     -3.37293043
      3.21000000	      9.90667397	      7.60299715	    -74.00453932	      0.35526722	      0.88975093	     -0.43529567	     16.52683797	      8.21786681	     33.87451740	    -25.38970355	      1.11152161	    -13.15898223	     34.53473022	    -19.55704576	      0.57164205	    -77.75801213	     15.66118779	     -0.22996791	     -7.68658846	     -4.56414315	     -2.18191063
      3.22000000	     10.87224121	      7.63522292	    -77.88244886	      0.35631805	      0.89088603	     -0.43376730	     16.46432610	      7.61352619	     31.57924366	    -25.36267073	      1.18558136	    -13.73236624	     34.26833093	    -19.48015274	      0.26456823	    -77.92400885	     15.84558849	     -0.85788359	     -7.39582436	     -5.52364140	     -0.98472479
      3.23000000	     11.88904146	      7.60605474	    -81.68949824	      0.35756812	      0.89180227	     -0.43247963	     16.45545656	      6.88670770	     28.67271478	    -25.32270552	      1.40647884	    -14.34530217	     33.95574452	    -19.24480470	     -0.09796145	    -78.04032527	     16.00933526	     -1.29513080	     -7.05045194	     -6.47907851	      0.19489233
